<svg width="23" height="18" viewBox="0 0 23 18" fill="none" xmlns="http://www.w3.org/2000/svg">
<path fill-rule="evenodd" clip-rule="evenodd" d="M8.06742 1.00988C6.18386 1.28055 4.62494 2.0138 3.35565 3.22606C2.64134 3.90827 2.09181 4.65986 1.66926 5.53248C1.10951 6.68848 0.837891 7.844 0.837891 9.06928C0.837891 10.2946 1.10951 11.4501 1.66926 12.6061C2.77868 14.8972 4.90626 16.518 7.48207 17.0344C7.92012 17.1223 8.10621 17.1343 9.02845 17.1343C9.95129 17.1343 10.1366 17.1223 10.576 17.0342C12.5332 16.6419 14.3262 15.5383 15.5206 13.991C16.4981 12.7247 17.0483 11.2813 17.1827 9.6305C17.2272 9.08537 17.2245 8.95122 17.1623 8.61427C16.981 7.63215 16.2729 6.81825 15.3352 6.51425C14.8717 6.36398 14.1124 6.36398 13.6489 6.51425C12.5279 6.87776 11.7586 7.95384 11.7586 9.17211C11.7586 10.2401 10.9488 11.2976 9.86183 11.6493C9.3569 11.8126 8.7 11.8126 8.19506 11.6493C7.28738 11.3556 6.59697 10.6134 6.35828 9.6747C6.25371 9.26345 6.29857 8.19791 6.45111 7.46925C6.7222 6.17426 7.30384 4.9492 8.11691 3.96077C8.4797 3.51973 9.29103 2.76611 9.75048 2.44343C10.1608 2.1552 11.065 1.66936 11.4638 1.5228C11.5779 1.4809 11.6713 1.43242 11.6713 1.41513C11.6713 1.37534 10.98 1.1829 10.4918 1.08677C10.1334 1.0162 8.405 0.961365 8.06742 1.00988Z" fill="#54259F"/>
<path fill-rule="evenodd" clip-rule="evenodd" d="M15.4267 17.1158C17.3103 16.8452 18.8692 16.1119 20.1385 14.8997C20.8528 14.2175 21.4023 13.4659 21.8249 12.5933C22.3846 11.4373 22.6562 10.2817 22.6562 9.05645C22.6562 7.83118 22.3846 6.67565 21.8249 5.51965C20.7155 3.22858 18.5879 1.60775 16.0121 1.09129C15.574 1.00346 15.3879 0.991436 14.4657 0.991436C13.5428 0.991436 13.3575 1.00341 12.9182 1.0915C10.961 1.48386 9.16795 2.5874 7.97353 4.13472C6.99608 5.40099 6.44585 6.84439 6.31139 8.49523C6.26697 9.04037 6.26968 9.17451 6.33188 9.51147C6.51317 10.4936 7.22127 11.3075 8.15892 11.6115C8.6224 11.7618 9.38825 11.7618 9.85172 11.6115C10.9728 11.248 11.7355 10.1719 11.7355 8.95362C11.7355 7.88566 12.5453 6.82813 13.6323 6.47647C14.1372 6.31309 14.7941 6.31309 15.2991 6.47647C16.2068 6.7701 16.8972 7.51229 17.1359 8.45104C17.2404 8.86229 17.1956 9.92782 17.043 10.6565C16.7719 11.9515 16.1903 13.1765 15.3772 14.165C15.0144 14.606 14.2031 15.3596 13.7437 15.6823C13.3333 15.9705 12.4291 16.4564 12.0304 16.6029C11.9162 16.6448 11.8229 16.6933 11.8229 16.7106C11.8229 16.7504 12.5141 16.9428 13.0023 17.039C13.3608 17.1095 15.0891 17.1644 15.4267 17.1158Z" fill="#C393F2"/>
</svg>
