<svg width="184" height="177" viewBox="0 0 184 177" fill="none" xmlns="http://www.w3.org/2000/svg">
<g clip-path="url(#clip0_99_1174)">
<path d="M179.02 128.32C180.46 128.32 181.63 129.5 181.63 130.95C181.63 132.4 180.46 133.58 179.02 133.58C177.58 133.58 176.41 132.4 176.41 130.95C176.41 129.5 177.58 128.32 179.02 128.32Z" fill="#FACD49"/>
<path d="M134.36 133.58C132.919 133.58 131.75 132.403 131.75 130.95C131.75 129.497 132.919 128.32 134.36 128.32C135.802 128.32 136.97 129.497 136.97 130.95C136.97 132.403 135.802 133.58 134.36 133.58Z" fill="#FACD49"/>
<path d="M156.69 128.32C158.13 128.32 159.3 129.5 159.3 130.95C159.3 132.4 158.13 133.58 156.69 133.58C155.25 133.58 154.08 132.4 154.08 130.95C154.08 129.5 155.25 128.32 156.69 128.32Z" fill="#FACD49"/>
<path d="M157.06 106.94C158.5 106.94 159.67 108.12 159.67 109.57C159.67 111.02 158.5 112.2 157.06 112.2C155.62 112.2 154.45 111.02 154.45 109.57C154.45 108.12 155.62 106.94 157.06 106.94Z" fill="#FACD49"/>
<path d="M179.39 106.94C180.83 106.94 182 108.12 182 109.57C182 111.02 180.83 112.2 179.39 112.2C177.95 112.2 176.78 111.02 176.78 109.57C176.78 108.12 177.95 106.94 179.39 106.94Z" fill="#FACD49"/>
<path d="M112.4 106.94C113.84 106.94 115.01 108.12 115.01 109.57C115.01 111.02 113.84 112.2 112.4 112.2C110.96 112.2 109.79 111.02 109.79 109.57C109.79 108.12 110.96 106.94 112.4 106.94Z" fill="#FACD49"/>
<path d="M134.73 106.94C136.17 106.94 137.34 108.12 137.34 109.57C137.34 111.02 136.17 112.2 134.73 112.2C133.29 112.2 132.12 111.02 132.12 109.57C132.12 108.12 133.29 106.94 134.73 106.94Z" fill="#FACD49"/>
<path d="M179.02 171.1C180.46 171.1 181.63 172.28 181.63 173.73C181.63 175.18 180.46 176.36 179.02 176.36C177.58 176.36 176.41 175.18 176.41 173.73C176.41 172.28 177.58 171.1 179.02 171.1Z" fill="#FACD49"/>
<path d="M157.06 149.71C158.5 149.71 159.67 150.89 159.67 152.34C159.67 153.79 158.5 154.97 157.06 154.97C155.62 154.97 154.45 153.79 154.45 152.34C154.45 150.89 155.62 149.71 157.06 149.71Z" fill="#FACD49"/>
<path d="M179.39 149.71C180.83 149.71 182 150.89 182 152.34C182 153.79 180.83 154.97 179.39 154.97C177.95 154.97 176.78 153.79 176.78 152.34C176.78 150.89 177.95 149.71 179.39 149.71Z" fill="#FACD49"/>
<path d="M90.4403 85.55C91.8803 85.55 93.0503 86.73 93.0503 88.18C93.0503 89.63 91.8803 90.81 90.4403 90.81C89.0003 90.81 87.8303 89.63 87.8303 88.18C87.8303 86.73 89.0003 85.55 90.4403 85.55Z" fill="#FACD49"/>
<path d="M135.1 85.55C136.54 85.55 137.71 86.73 137.71 88.18C137.71 89.63 136.54 90.81 135.1 90.81C133.66 90.81 132.49 89.63 132.49 88.18C132.49 86.73 133.66 85.55 135.1 85.55Z" fill="#FACD49"/>
<path d="M112.77 90.81C111.329 90.81 110.16 89.6325 110.16 88.18C110.16 86.7275 111.329 85.55 112.77 85.55C114.212 85.55 115.38 86.7275 115.38 88.18C115.38 89.6325 114.212 90.81 112.77 90.81Z" fill="#FACD49"/>
<path d="M157.44 85.55C158.88 85.55 160.05 86.73 160.05 88.18C160.05 89.63 158.88 90.81 157.44 90.81C156 90.81 154.83 89.63 154.83 88.18C154.83 86.73 155.99 85.55 157.44 85.55Z" fill="#FACD49"/>
<path d="M179.77 85.55C181.21 85.55 182.38 86.73 182.38 88.18C182.38 89.63 181.21 90.81 179.77 90.81C178.33 90.81 177.16 89.63 177.16 88.18C177.16 86.73 178.33 85.55 179.77 85.55Z" fill="#FACD49"/>
<path d="M90.8204 64.16C92.2604 64.16 93.4304 65.34 93.4304 66.79C93.4304 68.24 92.2604 69.42 90.8204 69.42C89.3804 69.42 88.2104 68.24 88.2104 66.79C88.2104 65.34 89.3804 64.16 90.8204 64.16Z" fill="#FACD49"/>
<path d="M113.15 64.16C114.59 64.16 115.76 65.34 115.76 66.79C115.76 68.24 114.59 69.42 113.15 69.42C111.71 69.42 110.54 68.24 110.54 66.79C110.54 65.34 111.71 64.16 113.15 64.16Z" fill="#FACD49"/>
<path d="M135.48 64.16C136.92 64.16 138.09 65.34 138.09 66.79C138.09 68.24 136.92 69.42 135.48 69.42C134.04 69.42 132.87 68.24 132.87 66.79C132.87 65.34 134.04 64.16 135.48 64.16Z" fill="#FACD49"/>
<path d="M68.4803 64.16C69.9203 64.16 71.0903 65.34 71.0903 66.79C71.0903 68.24 69.9203 69.42 68.4803 69.42C67.0403 69.42 65.8703 68.24 65.8703 66.79C65.8703 65.34 67.0403 64.16 68.4803 64.16Z" fill="#FACD49"/>
<path d="M180.14 64.16C181.58 64.16 182.75 65.34 182.75 66.79C182.75 68.24 181.58 69.42 180.14 69.42C178.7 69.42 177.53 68.24 177.53 66.79C177.53 65.34 178.7 64.16 180.14 64.16Z" fill="#FACD49"/>
<path d="M157.81 64.16C159.25 64.16 160.42 65.34 160.42 66.79C160.42 68.24 159.25 69.42 157.81 69.42C156.37 69.42 155.2 68.24 155.2 66.79C155.2 65.34 156.37 64.16 157.81 64.16Z" fill="#FACD49"/>
<path d="M180.51 42.77C181.95 42.77 183.12 43.95 183.12 45.4C183.12 46.85 181.95 48.03 180.51 48.03C179.07 48.03 177.9 46.85 177.9 45.4C177.9 43.95 179.07 42.77 180.51 42.77Z" fill="#FACD49"/>
<path d="M91.1903 48.03C89.7488 48.03 88.5803 46.8525 88.5803 45.4C88.5803 43.9475 89.7488 42.77 91.1903 42.77C92.6318 42.77 93.8003 43.9475 93.8003 45.4C93.8003 46.8525 92.6318 48.03 91.1903 48.03Z" fill="#FACD49"/>
<path d="M46.5304 48.03C45.0889 48.03 43.9204 46.8525 43.9204 45.4C43.9204 43.9475 45.0889 42.77 46.5304 42.77C47.9718 42.77 49.1404 43.9475 49.1404 45.4C49.1404 46.8525 47.9718 48.03 46.5304 48.03Z" fill="#FACD49"/>
<path d="M113.52 42.77C114.96 42.77 116.13 43.95 116.13 45.4C116.13 46.85 114.96 48.03 113.52 48.03C112.08 48.03 110.91 46.85 110.91 45.4C110.91 43.95 112.08 42.77 113.52 42.77Z" fill="#FACD49"/>
<path d="M135.85 42.77C137.29 42.77 138.46 43.95 138.46 45.4C138.46 46.85 137.29 48.03 135.85 48.03C134.41 48.03 133.24 46.85 133.24 45.4C133.24 43.95 134.41 42.77 135.85 42.77Z" fill="#FACD49"/>
<path d="M158.18 42.77C159.62 42.77 160.79 43.95 160.79 45.4C160.79 46.85 159.62 48.03 158.18 48.03C156.74 48.03 155.57 46.85 155.57 45.4C155.57 43.95 156.74 42.77 158.18 42.77Z" fill="#FACD49"/>
<path d="M68.8605 42.77C70.3005 42.77 71.4705 43.95 71.4705 45.4C71.4705 46.85 70.3005 48.03 68.8605 48.03C67.4205 48.03 66.2505 46.85 66.2505 45.4C66.2505 43.95 67.4205 42.77 68.8605 42.77Z" fill="#FACD49"/>
<path d="M180.88 26.64C179.439 26.64 178.27 25.4625 178.27 24.01C178.27 22.5575 179.439 21.38 180.88 21.38C182.322 21.38 183.49 22.5575 183.49 24.01C183.49 25.4625 182.322 26.64 180.88 26.64Z" fill="#FACD49"/>
<path d="M69.2303 21.39C70.6703 21.39 71.8403 22.57 71.8403 24.02C71.8403 25.47 70.6703 26.65 69.2303 26.65C67.7903 26.65 66.6203 25.47 66.6203 24.02C66.6203 22.57 67.7903 21.39 69.2303 21.39Z" fill="#FACD49"/>
<path d="M158.55 21.39C159.99 21.39 161.16 22.57 161.16 24.02C161.16 25.47 159.99 26.65 158.55 26.65C157.11 26.65 155.94 25.47 155.94 24.02C155.94 22.57 157.11 21.39 158.55 21.39Z" fill="#FACD49"/>
<path d="M113.89 21.39C115.33 21.39 116.5 22.57 116.5 24.02C116.5 25.47 115.33 26.65 113.89 26.65C112.45 26.65 111.28 25.47 111.28 24.02C111.28 22.57 112.45 21.39 113.89 21.39Z" fill="#FACD49"/>
<path d="M136.22 21.39C137.66 21.39 138.83 22.57 138.83 24.02C138.83 25.47 137.66 26.65 136.22 26.65C134.78 26.65 133.61 25.47 133.61 24.02C133.61 22.57 134.78 21.39 136.22 21.39Z" fill="#FACD49"/>
<path d="M91.5604 21.39C93.0004 21.39 94.1704 22.57 94.1704 24.02C94.1704 25.47 93.0004 26.65 91.5604 26.65C90.1204 26.65 88.9504 25.47 88.9504 24.02C88.9504 22.57 90.1204 21.39 91.5604 21.39Z" fill="#FACD49"/>
<path d="M24.5704 21.39C26.0104 21.39 27.1804 22.57 27.1804 24.02C27.1804 25.47 26.0104 26.65 24.5704 26.65C23.1304 26.65 21.9604 25.47 21.9604 24.02C21.9604 22.57 23.1204 21.39 24.5704 21.39Z" fill="#FACD49"/>
<path d="M46.9003 21.39C48.3403 21.39 49.5103 22.57 49.5103 24.02C49.5103 25.47 48.3403 26.65 46.9003 26.65C45.4603 26.65 44.2903 25.47 44.2903 24.02C44.2903 22.57 45.4503 21.39 46.9003 21.39Z" fill="#FACD49"/>
<path d="M158.92 5.24999C157.48 5.24999 156.31 4.06999 156.31 2.61999C156.31 1.16999 157.48 -0.0100098 158.92 -0.0100098C160.36 -0.0100098 161.53 1.16999 161.53 2.61999C161.53 4.06999 160.36 5.24999 158.92 5.24999Z" fill="#FACD49"/>
<path d="M181.25 5.25C179.81 5.25 178.64 4.07 178.64 2.62C178.64 1.17 179.82 0 181.25 0C182.68 0 183.86 1.18 183.86 2.63C183.86 4.08 182.69 5.26 181.25 5.26V5.25Z" fill="#FACD49"/>
<path d="M24.9403 5.26C23.4988 5.26 22.3303 4.08251 22.3303 2.63C22.3303 1.17749 23.4988 0 24.9403 0C26.3818 0 27.5503 1.17749 27.5503 2.63C27.5503 4.08251 26.3818 5.26 24.9403 5.26Z" fill="#FACD49"/>
<path d="M91.9303 5.24999C90.4903 5.24999 89.3203 4.06999 89.3203 2.61999C89.3203 1.16999 90.4903 -0.0100098 91.9303 -0.0100098C93.3703 -0.0100098 94.5403 1.16999 94.5403 2.61999C94.5403 4.06999 93.3703 5.24999 91.9303 5.24999Z" fill="#FACD49"/>
<path d="M69.6004 5.24999C68.1604 5.24999 66.9904 4.06999 66.9904 2.61999C66.9904 1.16999 68.1604 -0.0100098 69.6004 -0.0100098C71.0404 -0.0100098 72.2104 1.16999 72.2104 2.61999C72.2104 4.06999 71.0404 5.24999 69.6004 5.24999Z" fill="#FACD49"/>
<path d="M47.2704 5.24999C45.8304 5.24999 44.6604 4.06999 44.6604 2.61999C44.6604 1.16999 45.8304 -0.0100098 47.2704 -0.0100098C48.7104 -0.0100098 49.8804 1.16999 49.8804 2.61999C49.8804 4.06999 48.7104 5.24999 47.2704 5.24999Z" fill="#FACD49"/>
<path d="M136.59 5.24999C135.15 5.24999 133.98 4.06999 133.98 2.61999C133.98 1.16999 135.15 -0.0100098 136.59 -0.0100098C138.03 -0.0100098 139.2 1.16999 139.2 2.61999C139.2 4.06999 138.03 5.24999 136.59 5.24999Z" fill="#FACD49"/>
<path d="M2.61046 5.24999C1.17046 5.24999 0.000457764 4.06999 0.000457764 2.61999C0.000457764 1.16999 1.16046 -0.0100098 2.61046 -0.0100098C4.06046 -0.0100098 5.22046 1.16999 5.22046 2.61999C5.22046 4.06999 4.05046 5.24999 2.61046 5.24999Z" fill="#FACD49"/>
<path d="M114.26 5.24999C112.82 5.24999 111.65 4.06999 111.65 2.61999C111.65 1.16999 112.82 -0.0100098 114.26 -0.0100098C115.7 -0.0100098 116.87 1.16999 116.87 2.61999C116.87 4.06999 115.7 5.24999 114.26 5.24999Z" fill="#FACD49"/>
</g>
<defs>
<clipPath id="clip0_99_1174">
<rect width="183.86" height="176.35" fill="white" transform="matrix(-1 0 0 1 183.86 0)"/>
</clipPath>
</defs>
</svg>
