<svg width="126" height="283" viewBox="0 0 126 283" fill="none" xmlns="http://www.w3.org/2000/svg">
<path d="M90.5125 252.932C92.0542 254.34 93.6172 255.752 95.2041 257.142C95.6394 257.534 95.7174 258.235 95.3432 258.704C94.969 259.172 94.3094 259.265 93.874 258.872C92.2657 257.48 90.6813 256.066 89.142 254.635C88.7067 254.243 88.6525 253.521 89.0481 253.055C89.2746 252.755 89.6343 252.632 89.9557 252.665C90.1699 252.688 90.3556 252.777 90.534 252.934L90.5125 252.932ZM98.6823 263.003C100.295 264.35 101.93 265.699 103.588 267.028C104.048 267.4 104.707 267.307 105.065 266.791C105.42 266.297 105.32 265.594 104.861 265.223C103.224 263.896 101.587 262.569 99.9958 261.225C99.8363 261.092 99.6507 261.004 99.4578 260.983C99.115 260.947 98.753 261.094 98.5241 261.416C98.1689 261.91 98.2255 262.609 98.6847 262.98L98.6823 263.003ZM63.5441 225.091C63.2655 225.062 62.9749 225.147 62.7343 225.376C62.3006 225.792 62.2476 226.502 62.6329 226.958C64.0005 228.58 65.3896 230.203 66.8001 231.829C67.1854 232.285 67.8568 232.287 68.2905 231.871C68.7242 231.454 68.7344 230.74 68.349 230.284C66.9362 228.681 65.5685 227.059 64.2223 225.44C64.0511 225.214 63.8036 225.096 63.5465 225.069L63.5441 225.091ZM92.6924 24.7001C94.265 26.0199 95.8543 27.3876 97.4602 28.8032C97.8956 29.1953 98.5528 29.1258 98.9485 28.6595C99.3227 28.1909 99.2661 27.4923 98.8332 27.0773C97.2082 25.6366 95.5999 24.2439 94.0273 22.9241C93.8678 22.7919 93.6799 22.726 93.487 22.7057C93.1442 22.6696 92.7822 22.8163 92.5533 23.1385C92.1981 23.6322 92.2761 24.3331 92.7138 24.7023L92.6924 24.7001ZM108.575 270.9C110.239 272.183 111.926 273.446 113.636 274.688C114.119 275.039 114.762 274.899 115.096 274.403C115.432 273.884 115.309 273.201 114.847 272.853C113.158 271.613 111.471 270.35 109.827 269.092C109.665 268.983 109.499 268.919 109.327 268.901C108.963 268.863 108.598 269.033 108.37 269.355C108.036 269.851 108.135 270.554 108.597 270.903L108.575 270.9ZM71.9594 234.681C71.6595 234.649 71.3451 234.755 71.1234 235.008C70.7088 235.45 70.701 236.141 71.0887 236.575C72.5279 238.134 73.967 239.694 75.4514 241.235C75.8629 241.648 76.5343 241.649 76.9276 241.206C77.3422 240.765 77.3309 240.048 76.9194 239.635C75.4564 238.096 74.015 236.559 72.5759 234.999C72.4022 234.796 72.1737 234.703 71.9381 234.678L71.9594 234.681ZM106.619 37.5007C107.031 37.9134 107.705 37.8919 108.098 37.4484C108.491 37.0049 108.48 36.288 108.068 35.8753C106.541 34.3294 105.007 32.852 103.51 31.4249C103.332 31.2676 103.125 31.1765 102.932 31.1562C102.611 31.1224 102.272 31.2485 102.048 31.5251C101.653 31.9915 101.688 32.6878 102.121 33.1028C103.617 34.5299 105.13 36.005 106.638 37.5258L106.619 37.5007ZM81.3821 244.168C81.206 243.988 80.999 243.897 80.7848 243.874C80.4634 243.84 80.1466 243.969 79.9035 244.22C79.5102 244.664 79.5215 245.381 79.9331 245.793C81.4222 247.289 82.9567 248.766 84.4911 250.244C84.9026 250.656 85.5788 250.612 85.9745 250.146C86.3701 249.679 86.335 248.983 85.9021 248.568C84.3653 247.114 82.8522 245.638 81.3845 244.145L81.3821 244.168ZM115.356 46.7081C115.766 47.1436 116.413 47.1655 116.849 46.7265C117.264 46.2852 117.293 45.5956 116.886 45.1373C115.431 43.5297 113.97 41.9677 112.548 40.456C112.372 40.2758 112.146 40.1597 111.931 40.1372C111.631 40.1056 111.317 40.2111 111.074 40.4626C110.659 40.9039 110.67 41.6208 111.082 42.0335C112.504 43.5453 113.946 45.0821 115.402 46.6898L115.356 46.7081ZM3.82958 91.6651C3.56247 89.4667 3.33577 87.2956 3.14954 85.1519C3.09763 84.6154 2.70749 84.205 2.21468 84.1532C2.1504 84.1464 2.06475 84.1374 2.00047 84.1306C1.43137 84.1863 1.00468 84.7417 1.0494 85.3467C1.23322 87.5133 1.45512 89.73 1.71983 91.9512C1.78597 92.5585 2.30464 92.9825 2.89757 92.9063C3.46907 92.8278 3.87668 92.2473 3.81054 91.64L3.82958 91.6651ZM2.71242 78.595C2.59768 76.3895 2.54721 74.1908 2.51337 72.04C2.50911 71.4624 2.10234 71.004 1.58811 70.9499C1.54526 70.9454 1.50241 70.9409 1.45955 70.9364C0.87384 70.9441 0.409086 71.4494 0.429972 72.075C0.437577 74.2692 0.509478 76.4701 0.619419 78.7213C0.642705 79.324 1.15417 79.8165 1.72327 79.7609C2.31138 79.7304 2.73571 79.1977 2.71482 78.5722L2.71242 78.595ZM118.793 278.393C120.508 279.589 122.245 280.788 124.006 281.966C124.492 282.294 125.137 282.131 125.452 281.61C125.766 281.089 125.622 280.404 125.136 280.076C123.397 278.9 121.657 277.725 119.963 276.531C119.823 276.423 119.654 276.383 119.504 276.367C119.14 276.328 118.751 276.519 118.52 276.864C118.205 277.385 118.329 278.067 118.812 278.418L118.793 278.393ZM5.80403 104.618C5.40355 102.451 5.04587 100.29 4.70727 98.1529C4.62912 97.6598 4.2342 97.2951 3.78425 97.2478C3.69854 97.2387 3.5914 97.2275 3.50089 97.2641C2.92699 97.3654 2.54079 97.9482 2.62834 98.5577C2.96456 100.717 3.32217 102.879 3.74168 105.07C3.85068 105.682 4.39562 106.063 4.97191 105.938C5.54821 105.814 5.91303 105.229 5.80403 104.618ZM2.59526 65.4915C2.67577 63.2835 2.79913 61.08 2.95813 58.9494C3.02055 58.3557 2.59953 57.8266 2.02103 57.7658L1.99965 57.7635C1.42112 57.7027 0.915945 58.1806 0.872549 58.7994C0.708751 60.9756 0.58299 63.202 0.497682 65.4557C0.475715 66.0768 0.941908 66.5876 1.5038 66.6004C2.08713 66.6156 2.57089 66.1354 2.59286 65.5143L2.59526 65.4915ZM7.10316 111.011C7.00119 110.539 6.62531 110.199 6.19678 110.154C6.08965 110.143 5.96108 110.129 5.84676 110.186C5.28948 110.336 4.92231 110.943 5.05513 111.535C5.50327 113.66 6.01329 115.814 6.54476 117.971C6.69899 118.565 7.26773 118.925 7.82741 118.753C8.38708 118.581 8.73285 117.97 8.5786 117.377C8.04475 115.243 7.57513 113.116 7.10316 111.011ZM23.4292 160.336C23.2724 159.973 22.9488 159.754 22.6059 159.718C22.4131 159.698 22.2154 159.724 22.032 159.82C21.5056 160.088 21.2836 160.757 21.5283 161.314C22.4052 163.276 23.3225 165.266 24.2637 167.235C24.5299 167.794 25.1582 167.998 25.6656 167.705C26.1944 167.415 26.395 166.743 26.1265 166.207C25.1853 164.238 24.2846 162.296 23.4078 160.334L23.4292 160.336ZM13.9932 136.14C13.8626 135.734 13.5009 135.465 13.1152 135.424C12.9653 135.409 12.8104 135.438 12.6532 135.491C12.1102 135.711 11.8263 136.351 12.0044 136.924C12.6978 138.982 13.4127 141.043 14.1466 143.129C14.3461 143.704 14.9673 143.977 15.5103 143.757C16.0534 143.537 16.3183 142.872 16.1188 142.297C15.3825 140.234 14.6652 138.196 13.9908 136.163L13.9932 136.14ZM49.1547 2.59862C51.1045 2.80361 53.1018 3.17522 55.1299 3.6655C55.6798 3.79257 56.261 3.41503 56.3878 2.82804C56.5169 2.2182 56.1674 1.62737 55.6175 1.5003C53.5037 1.001 51.4207 0.62039 49.3852 0.406388C48.8067 0.345567 48.2824 0.798361 48.22 1.3921C48.1552 2.0087 48.5523 2.5584 49.1309 2.61922L49.1547 2.59862ZM82.7515 17.0517C84.4052 18.2183 86.0946 19.458 87.7768 20.7662C88.2384 21.1149 88.9004 20.9998 89.2342 20.5038C89.5679 20.0079 89.4686 19.3048 89.007 18.9561C87.2843 17.6206 85.5735 16.3787 83.9007 15.1869C83.7604 15.0798 83.5913 15.0389 83.4414 15.0231C83.0771 14.9848 82.6889 15.1749 82.4576 15.52C82.1429 16.0411 82.2661 16.7236 82.7491 17.0745L82.7515 17.0517ZM25.9454 7.82394C27.6678 6.68897 29.4592 5.72287 31.3408 4.92789C31.8838 4.70792 32.1487 4.04312 31.9492 3.46802C31.7972 3.05954 31.4545 2.81571 31.0903 2.77742C30.9189 2.7594 30.7641 2.78931 30.6069 2.84207C28.6347 3.67369 26.6838 4.71537 24.8685 5.90983C24.3802 6.22788 24.22 6.92679 24.5124 7.4424C24.8263 7.96026 25.4594 8.11916 25.9478 7.80108L25.9454 7.82394ZM8.90468 122.929C8.34501 123.101 8.01831 123.737 8.19398 124.332C8.77548 126.425 9.376 128.543 10.0218 130.643C10.1999 131.216 10.7948 131.532 11.3354 131.335C11.8975 131.14 12.1814 130.501 12.0034 129.928C11.3576 127.828 10.7522 125.756 10.1921 123.665C10.0663 123.213 9.70711 122.921 9.30001 122.879C9.17146 122.865 9.01906 122.872 8.8833 122.927L8.90468 122.929ZM16.4722 149.238C17.2562 151.26 18.083 153.286 18.9312 155.315C19.1545 155.869 19.7781 156.119 20.3046 155.852C20.831 155.584 21.072 154.939 20.8272 154.383C19.9766 152.377 19.1688 150.376 18.4063 148.356C18.2519 147.97 17.9307 147.729 17.545 147.688C17.3736 147.67 17.1974 147.698 17.0378 147.773C16.4924 148.016 16.2489 148.683 16.4722 149.238ZM8.97564 27.8816C9.51112 28.1457 10.1208 27.9096 10.3761 27.3362C11.2802 25.3302 12.2604 23.4245 13.3168 21.6192C13.6315 21.0982 13.4869 20.4134 12.98 20.0831C12.8373 19.9988 12.6921 19.9373 12.5421 19.9216C12.1564 19.881 11.7682 20.0711 11.5345 20.439C10.4281 22.3083 9.41681 24.3031 8.48406 26.3753C8.23119 26.9259 8.44255 27.5946 8.97804 27.8587L8.97564 27.8816ZM2.43915 53.3767C3.05813 53.4649 3.53708 53.0304 3.62332 52.4161C3.92047 50.2077 4.25566 48.0495 4.66937 45.9689C4.77705 45.3568 4.42516 44.7888 3.85384 44.6595C3.83242 44.6572 3.78962 44.6527 3.7682 44.6505C3.23253 44.5941 2.73692 44.9807 2.63406 45.5471C2.21553 47.6734 1.87316 49.9001 1.5736 52.1313C1.50877 52.7479 1.88449 53.2953 2.46061 53.379L2.43915 53.3767ZM37.0971 3.13191C39.026 2.71129 41.0453 2.4618 43.0906 2.37669C43.6788 2.34616 44.122 1.83864 44.1226 1.21531C44.1159 0.660487 43.7091 0.202145 43.1949 0.148082C43.152 0.143576 43.1092 0.139076 43.045 0.132318C40.8901 0.228985 38.7399 0.487787 36.7014 0.919963C36.1251 1.04407 35.7603 1.62913 35.8693 2.24089C35.9783 2.85263 36.5232 3.23316 37.0995 3.10902L37.0971 3.13191ZM4.80045 40.3953C5.34792 40.5452 5.94823 40.1927 6.09635 39.608C6.64584 37.4723 7.30007 35.3708 7.98513 33.3879C8.19753 32.81 7.91711 32.1802 7.37682 31.9618C7.29113 31.9527 7.20783 31.9209 7.12212 31.9119C6.65074 31.8623 6.18619 32.1598 6.02624 32.651C5.31255 34.7001 4.675 36.8495 4.09689 39.0514C3.94636 39.659 4.272 40.2704 4.81949 40.4204L4.80045 40.3953ZM15.3879 16.5497C15.8233 16.9418 16.5018 16.8746 16.857 16.3809C18.1609 14.694 19.5837 13.112 21.0516 11.7193C21.4853 11.3032 21.5383 10.593 21.153 10.1369C20.9794 9.93394 20.7342 9.79269 20.4771 9.76566C20.1985 9.73638 19.908 9.82131 19.6673 10.05C18.1042 11.5249 16.6075 13.1916 15.2298 14.963C14.8555 15.4316 14.9096 16.1531 15.3688 16.5246L15.3879 16.5497ZM46.9984 206.497C48.2207 208.265 49.4667 210.012 50.7342 211.762C51.0957 212.239 51.7361 212.329 52.2103 211.94C52.663 211.549 52.7565 210.866 52.3974 210.367C51.1275 208.64 49.9028 206.895 48.6996 205.152C48.5093 204.902 48.2452 204.735 47.9666 204.706C47.7095 204.679 47.4428 204.743 47.2283 204.928C46.7566 205.294 46.6608 206 46.9984 206.497ZM72.1739 10.5138C73.9349 11.484 75.7316 12.5271 77.5211 13.6388C78.0089 13.9441 78.6568 13.7582 78.9715 13.2372C79.2648 12.7139 79.0987 12.0268 78.6109 11.7216C76.7809 10.5826 74.9438 9.51204 73.1423 8.51453C73.0185 8.45537 72.8924 8.419 72.7638 8.40548C72.3567 8.36268 71.9208 8.59391 71.7252 9.01203C71.4509 9.56039 71.6622 10.2291 72.1739 10.5138ZM55.5171 215.105C55.26 215.078 54.9694 215.162 54.755 215.348C54.3023 215.739 54.2278 216.447 54.5893 216.923C55.8831 218.629 57.2006 220.315 58.5396 222.003C58.9011 222.479 59.5677 222.526 60.0228 222.112C60.4755 221.721 60.5286 221.011 60.1457 220.532C58.8043 218.867 57.5081 217.184 56.212 215.501C56.0407 215.275 55.7742 215.132 55.5171 215.105ZM30.1011 178.885C30.3911 179.423 31.0219 179.605 31.5317 179.289C32.0415 178.973 32.2206 178.3 31.9306 177.761C30.918 175.854 29.9054 173.946 28.9571 172.046C28.7978 171.706 28.4718 171.51 28.1504 171.476C27.9362 171.454 27.7361 171.502 27.5289 171.619C27.0215 171.912 26.8185 172.606 27.1085 173.144C28.0758 175.07 29.0861 177 30.1201 178.91L30.1011 178.885ZM34.2524 182.877C34.0381 182.854 33.7952 182.898 33.607 183.04C33.1186 183.358 32.9371 184.055 33.2509 184.573C34.3112 186.439 35.3929 188.307 36.5174 190.18C36.8313 190.698 37.4668 190.834 37.9552 190.516C38.446 190.175 38.5823 189.497 38.2899 188.981C37.1844 187.133 36.1027 185.265 35.0614 183.424C34.8784 183.104 34.5928 182.936 34.2714 182.902L34.2524 182.877ZM60.945 5.4313C62.804 6.08849 64.7152 6.86666 66.6382 7.7384C67.1761 7.97967 67.7883 7.72076 68.0221 7.14504C68.2559 6.56932 68.0208 5.92121 67.4829 5.67996C65.5194 4.78086 63.5439 3.99597 61.623 3.30919C61.5373 3.30018 61.4755 3.2706 61.3898 3.26159C60.9184 3.21203 60.4539 3.50948 60.2915 4.02346C60.1005 4.60366 60.4023 5.2357 60.945 5.4313ZM43.3793 201.153C43.7169 201.65 44.3764 201.766 44.8481 201.4C45.3199 201.034 45.4347 200.353 45.0994 199.833C43.9224 198.047 42.7478 196.238 41.6161 194.433C41.4306 194.137 41.1641 193.993 40.8641 193.962C40.6284 193.937 40.3831 194.004 40.1735 194.143C39.6827 194.484 39.5654 195.188 39.8793 195.705C41.0086 197.533 42.1832 199.342 43.3793 201.153Z" fill="#7C45D0"/>
</svg>
