<svg width="193" height="175" viewBox="0 0 193 175" fill="none" xmlns="http://www.w3.org/2000/svg">
<path d="M38.5554 7.35091C36.8094 6.98516 35.046 6.62671 33.2726 6.2929C32.7818 6.19374 32.4413 5.72509 32.5405 5.2343C32.6397 4.74352 33.1084 4.40303 33.5991 4.50219C35.3898 4.82869 37.1705 5.17984 38.9239 5.56292C39.4146 5.66208 39.7451 6.15536 39.6287 6.65345C39.575 6.96178 39.3489 7.19999 39.089 7.30959C38.9157 7.38265 38.7379 7.39643 38.5381 7.35823L38.5554 7.35091ZM28.2589 3.55003C26.4828 3.25818 24.6894 2.97363 22.886 2.71372C22.3852 2.63919 21.9165 2.97966 21.8493 3.49779C21.7748 3.9986 22.1325 4.45996 22.6334 4.53449C24.4195 4.80171 26.2056 5.06893 27.9644 5.36808C28.1395 5.39627 28.3174 5.38248 28.4733 5.31673C28.7506 5.19982 28.9693 4.9443 29.0157 4.61864C29.0902 4.11783 28.767 3.64189 28.2662 3.56736L28.2589 3.55003ZM70.3792 16.0331C70.6045 15.9381 70.7932 15.7565 70.8861 15.4928C71.0519 15.0147 70.8081 14.4849 70.33 14.3192C68.6322 13.729 66.9171 13.1461 65.1846 12.5706C64.7065 12.4048 64.1913 12.6833 64.0256 13.1614C63.8598 13.6394 64.1383 14.1546 64.6163 14.3204C66.3415 14.8786 68.0393 15.4688 69.7198 16.0662C69.9415 16.1564 70.1786 16.1381 70.3866 16.0504L70.3792 16.0331ZM128.3 171.442C126.566 171.153 124.8 170.837 123.002 170.493C122.511 170.394 122.035 170.717 121.919 171.215C121.82 171.706 122.143 172.182 122.641 172.298C124.464 172.652 126.254 172.979 127.988 173.268C128.164 173.296 128.334 173.265 128.49 173.199C128.767 173.082 128.986 172.827 129.032 172.501C129.107 172 128.766 171.532 128.283 171.45L128.3 171.442ZM17.5122 2.02061C15.7233 1.79535 13.9244 1.59474 12.1156 1.41875C11.6047 1.36886 11.1681 1.73666 11.1109 2.23016C11.061 2.74099 11.4287 3.17773 11.9222 3.23493C13.7138 3.41823 15.5127 3.61886 17.2769 3.83409C17.4447 3.84495 17.598 3.82113 17.7366 3.76268C18.0311 3.63848 18.2426 3.36564 18.2889 3.03998C18.3461 2.54648 17.9883 2.08512 17.4948 2.02792L17.5122 2.02061ZM60.0876 12.6791C60.3302 12.5768 60.5289 12.3706 60.5972 12.0969C60.7383 11.6088 60.4671 11.1109 59.9964 10.9625C58.2685 10.4462 56.5406 9.92999 54.7854 9.44567C54.3046 9.32187 53.7894 9.60034 53.6656 10.0811C53.5245 10.5692 53.8203 11.0771 54.3011 11.2009C56.039 11.6925 57.7595 12.1915 59.4874 12.7077C59.7018 12.7806 59.9143 12.7522 60.1049 12.6718L60.0876 12.6791ZM112.497 168.086C112.017 167.962 111.509 168.258 111.385 168.739C111.261 169.219 111.557 169.727 112.038 169.851C113.828 170.321 115.596 170.739 117.314 171.136C117.514 171.175 117.709 171.153 117.865 171.088C118.125 170.978 118.334 170.747 118.395 170.456C118.511 169.958 118.205 169.475 117.707 169.358C115.989 168.961 114.238 168.536 112.473 168.076L112.497 168.086ZM49.0647 9.8172C49.2717 9.87274 49.4669 9.85167 49.6402 9.7786C49.9001 9.66901 50.0915 9.44542 50.1771 9.16443C50.3009 8.68367 50.0051 8.17576 49.5243 8.05196C47.7837 7.60229 46.0158 7.18457 44.2478 6.76684C43.767 6.64304 43.2664 6.95617 43.15 7.45426C43.0335 7.95235 43.3393 8.43564 43.8374 8.55212C45.598 8.95253 47.3487 9.37756 49.072 9.83453L49.0647 9.8172ZM102.112 165.139C101.624 164.998 101.119 165.252 100.96 165.747C100.819 166.235 101.073 166.74 101.568 166.899C103.328 167.442 105.073 167.951 106.769 168.44C106.976 168.496 107.196 168.485 107.37 168.412C107.612 168.309 107.811 168.103 107.896 167.822C108.038 167.334 107.742 166.826 107.261 166.702C105.565 166.213 103.844 165.714 102.085 165.171L102.112 165.139ZM169.596 86.581C170.681 88.0417 171.725 89.4996 172.726 90.9549C172.981 91.3169 173.444 91.448 173.843 91.2799C173.895 91.258 173.964 91.2288 174.016 91.2069C174.43 90.9303 174.535 90.3555 174.258 89.9416C173.249 88.469 172.191 86.9764 171.099 85.4984C170.805 85.0917 170.237 85.0045 169.813 85.3057C169.407 85.5996 169.327 86.1843 169.621 86.591L169.596 86.581ZM175.688 95.4611C176.659 96.9903 177.578 98.5413 178.466 100.065C178.7 100.476 179.196 100.635 179.612 100.459C179.646 100.445 179.681 100.43 179.716 100.416C180.161 100.166 180.315 99.6116 180.049 99.173C179.164 97.6073 178.227 96.0636 177.241 94.4998C176.982 94.0785 176.393 93.9393 175.979 94.2159C175.54 94.4824 175.428 95.0398 175.695 95.4784L175.688 95.4611ZM6.67893 0.915409C4.88466 0.774071 3.0731 0.640029 1.25149 0.530631C0.747968 0.498062 0.318564 0.883212 0.285995 1.38673C0.253427 1.89025 0.638583 2.31967 1.1421 2.35224C2.94639 2.46894 4.75066 2.58565 6.5276 2.73429C6.67811 2.75245 6.82404 2.71133 6.94532 2.66018C7.23988 2.53597 7.46136 2.2385 7.5004 1.89552C7.53297 1.392 7.16516 0.955268 6.65433 0.905373L6.67893 0.915409ZM162.895 78.1418C164.069 79.524 165.209 80.9207 166.325 82.3075C166.582 82.6275 167.031 82.724 167.395 82.5706C167.464 82.5413 167.551 82.5048 167.605 82.4409C168.005 82.1296 168.067 81.5522 167.756 81.1529C166.633 79.7488 165.493 78.352 164.294 76.9598C163.966 76.5677 163.395 76.5224 163.003 76.851C162.611 77.1796 162.566 77.7497 162.895 78.1418ZM181.026 104.781C181.849 106.394 182.637 108.02 183.368 109.61C183.558 110.06 184.093 110.263 184.56 110.066L184.578 110.059C185.046 109.862 185.241 109.31 185.027 108.849C184.281 107.225 183.485 105.581 182.648 103.934C182.416 103.481 181.854 103.31 181.418 103.534C180.965 103.766 180.787 104.311 181.019 104.764L181.026 104.781ZM159.338 74.111C159.605 74.4064 160.029 74.4929 160.376 74.3467C160.463 74.3102 160.567 74.2664 160.631 74.1779C160.999 73.8393 161.037 73.2518 160.698 72.8844C159.503 71.5515 158.249 70.2232 156.978 68.9022C156.622 68.5421 156.042 68.5214 155.682 68.8773C155.322 69.2332 155.301 69.8134 155.657 70.1735C156.921 71.4772 158.133 72.8028 159.338 74.111ZM127.067 45.6384C127.332 45.8325 127.668 45.8542 127.945 45.7373C128.101 45.6716 128.242 45.5712 128.344 45.4261C128.641 45.0155 128.543 44.4445 128.132 44.1483C126.674 43.1101 125.174 42.0693 123.664 41.053C123.236 40.7641 122.672 40.8793 122.4 41.3C122.112 41.7279 122.227 42.2916 122.647 42.5632C124.158 43.5794 125.626 44.5929 127.084 45.6311L127.067 45.6384ZM143.991 59.0114C144.254 59.2475 144.639 59.2893 144.951 59.1578C145.072 59.1066 145.179 59.0208 145.278 58.9177C145.606 58.5344 145.568 57.9589 145.202 57.6234C143.846 56.4402 142.472 55.2642 141.074 54.0783C140.691 53.7501 140.105 53.8133 139.777 54.1966C139.449 54.5799 139.512 55.1655 139.896 55.4936C141.286 56.6623 142.652 57.8209 143.984 58.9941L143.991 59.0114ZM170.527 169.126C168.95 169.791 167.27 170.356 165.519 170.85C165.047 170.988 164.752 171.5 164.89 171.972C165.036 172.462 165.54 172.739 166.013 172.601C167.833 172.078 169.582 171.483 171.228 170.789C171.696 170.592 171.916 170.05 171.726 169.6C171.529 169.132 171.005 168.904 170.537 169.101L170.527 169.126ZM138.984 172.774C137.249 172.628 135.457 172.445 133.644 172.209C133.15 172.152 132.689 172.51 132.632 173.004C132.575 173.497 132.933 173.958 133.426 174.016C135.281 174.254 137.09 174.43 138.85 174.586C139 174.604 139.146 174.563 139.268 174.511C139.562 174.387 139.784 174.09 139.823 173.747C139.855 173.243 139.488 172.806 138.977 172.757L138.984 172.774ZM186.225 155.731C185.359 157.259 184.373 158.695 183.249 160.047C182.921 160.43 182.984 161.016 183.367 161.344C183.648 161.573 184.008 161.604 184.302 161.48C184.441 161.422 184.548 161.336 184.647 161.233C185.826 159.817 186.904 158.261 187.817 156.651C188.064 156.221 187.907 155.654 187.476 155.407C187.028 155.168 186.479 155.318 186.232 155.748L186.225 155.731ZM153.183 66.3392C153.543 65.9833 153.539 65.3932 153.166 65.0404C151.882 63.7859 150.573 62.5215 149.237 61.289C148.871 60.9535 148.288 60.9748 147.953 61.3407C147.6 61.714 147.639 62.2895 148.005 62.625C149.341 63.8575 150.635 65.0873 151.902 66.349C152.179 66.6198 152.571 66.6789 152.9 66.5401C153.004 66.4962 153.118 66.4278 153.2 66.3319L153.183 66.3392ZM136.845 50.6782C135.434 49.5589 133.988 48.4541 132.526 47.3567C132.132 47.0531 131.554 47.1337 131.258 47.5444C130.962 47.955 131.035 48.5159 131.446 48.8121C132.901 49.8922 134.322 50.987 135.715 52.1136C135.988 52.3251 136.331 52.3641 136.643 52.2326C136.782 52.1742 136.906 52.0811 136.998 51.9606C137.319 51.56 137.238 50.9818 136.845 50.6782ZM191.199 134.327C190.683 134.362 190.31 134.784 190.344 135.3C190.455 137.111 190.467 138.881 190.38 140.612C190.347 141.115 190.732 141.545 191.253 141.57C191.396 141.571 191.532 141.554 191.654 141.503C191.966 141.372 192.187 141.074 192.219 140.714C192.318 138.917 192.294 137.07 192.179 135.2C192.153 134.701 191.723 134.311 191.207 134.345L191.199 134.327ZM185.998 113.378C185.488 113.573 185.295 114.083 185.475 114.558C186.132 116.261 186.739 117.943 187.256 119.603C187.418 120.085 187.915 120.345 188.405 120.2C188.422 120.193 188.457 120.178 188.474 120.171C188.908 119.988 189.133 119.505 188.985 119.058C188.454 117.363 187.824 115.629 187.16 113.909C186.963 113.441 186.456 113.206 185.981 113.386L185.998 113.378ZM179.556 163.727C178.246 164.83 176.798 165.849 175.264 166.761C174.825 167.027 174.689 167.575 174.938 168.021C175.166 168.415 175.661 168.573 176.077 168.398C176.111 168.383 176.146 168.369 176.198 168.347C177.811 167.381 179.356 166.301 180.745 165.143C181.137 164.815 181.183 164.245 180.854 163.853C180.525 163.461 179.955 163.415 179.563 163.744L179.556 163.727ZM189.388 123.643C188.908 123.763 188.589 124.265 188.709 124.745C189.144 126.501 189.484 128.275 189.753 129.978C189.822 130.48 190.289 130.813 190.791 130.745C190.86 130.716 190.936 130.704 191.006 130.674C191.387 130.514 191.624 130.108 191.55 129.69C191.276 127.928 190.904 126.126 190.465 124.311C190.337 123.814 189.843 123.512 189.363 123.633L189.388 123.643ZM190.823 145.098C190.332 144.999 189.839 145.33 189.764 145.83C189.44 147.579 188.983 149.302 188.416 150.909C188.25 151.387 188.494 151.917 188.972 152.083C189.186 152.156 189.431 152.154 189.639 152.067C189.864 151.972 190.053 151.79 190.146 151.527C190.753 149.821 191.233 148.007 191.579 146.167C191.679 145.676 191.348 145.183 190.847 145.108L190.823 145.098ZM90.51 22.442C88.865 21.6867 87.2101 20.956 85.5377 20.2327C85.0697 20.0423 84.5426 20.2442 84.3349 20.7195C84.1445 21.1875 84.3463 21.7146 84.8216 21.9224C86.4867 22.6284 88.1244 23.3664 89.7447 24.1116C89.9911 24.2118 90.2602 24.2208 90.4854 24.1258C90.6933 24.0381 90.872 23.8812 90.9622 23.6595C91.1772 23.2014 90.9681 22.657 90.51 22.442ZM149.711 173.046C147.972 173.086 146.177 173.087 144.36 173.037C143.864 173.022 143.442 173.425 143.409 173.928C143.394 174.424 143.797 174.846 144.293 174.862C146.152 174.915 147.989 174.915 149.769 174.879C149.888 174.87 149.999 174.843 150.103 174.799C150.432 174.661 150.674 174.314 150.656 173.933C150.647 173.427 150.217 173.037 149.711 173.046ZM80.5325 19.8331C80.7404 19.7454 80.9292 19.5638 81.0193 19.3421C81.2097 18.8741 80.9832 18.337 80.5152 18.1466C78.8401 17.4652 77.1551 16.8084 75.4527 16.159C74.9847 15.9686 74.4548 16.2124 74.2718 16.6978C74.0814 17.1658 74.3252 17.6956 74.8105 17.8787C76.5056 18.5108 78.1734 19.1749 79.8411 19.839C80.0628 19.9291 80.3246 19.9208 80.5325 19.8331ZM114.523 35.1527C114.085 34.8884 113.528 35.021 113.264 35.4589C113 35.8969 113.132 36.4532 113.57 36.7175C115.11 37.6598 116.651 38.6022 118.139 39.5664C118.397 39.7433 118.725 39.7477 118.985 39.6381C119.159 39.565 119.293 39.4473 119.405 39.2775C119.676 38.8569 119.554 38.2759 119.116 38.0116C117.603 37.0373 116.056 36.0777 114.498 35.1427L114.523 35.1527ZM109.741 34.026C109.915 33.9529 110.083 33.8206 110.171 33.6408C110.418 33.2102 110.278 32.6365 109.83 32.3969C108.27 31.5038 106.692 30.618 105.08 29.7469C104.632 29.5072 104.09 29.6744 103.843 30.1051C103.604 30.5531 103.771 31.0948 104.201 31.3418C105.789 32.2029 107.367 33.0887 108.902 33.9717C109.171 34.1239 109.457 34.1256 109.717 34.016L109.741 34.026ZM160.354 172.007C158.666 172.311 156.889 172.55 155.066 172.727C154.557 172.778 154.191 173.218 154.243 173.727C154.294 174.236 154.734 174.602 155.243 174.55C157.108 174.376 158.937 174.115 160.684 173.807C160.754 173.778 160.813 173.773 160.882 173.744C161.264 173.583 161.5 173.177 161.419 172.742C161.333 172.248 160.849 171.921 160.354 172.007ZM95.425 24.7571C94.967 24.5421 94.4152 24.734 94.2002 25.192C93.9852 25.65 94.1698 26.1844 94.6351 26.4167C96.2527 27.204 97.8777 28.0085 99.468 28.8277C99.7289 28.9625 99.9907 28.9542 100.233 28.8519C100.424 28.7715 100.585 28.6219 100.69 28.4348C100.93 27.9868 100.738 27.4351 100.29 27.1954C98.6922 26.3589 97.0673 25.5544 95.425 24.7571Z" fill="#7C45D0"/>
</svg>
